<svg xmlns="http://www.w3.org/2000/svg" viewBox="0 0 249.83 249.83"><defs><style>.a{fill:#00aeef;}.b{fill:#fff;}</style></defs><rect class="a" width="249.83" height="249.83" rx="35.33"/><path class="b" d="M192.9,104.38a6.6,6.6,0,0,0-7.52,4.37l-7.53-3.31c0-.52,0-1,0-1.52a52.83,52.83,0,0,0-1.65-13.15l3.38-2.3a7.55,7.55,0,0,0,8,1.25,7.65,7.65,0,0,0,4-9.7L190,75.73a7.53,7.53,0,0,0-14.62,2.51l-3.83.54c-.52-1-1.1-2-1.71-2.93a2.14,2.14,0,0,0-3-.67,2.17,2.17,0,0,0-.67,3c.72,1.15,1.39,2.31,2,3.43a3,3,0,0,0,3.07,1.59l6.91-1a2.17,2.17,0,0,0,1.72-2.88,3.26,3.26,0,0,1,.14-2.51,3.21,3.21,0,0,1,1.9-1.66A3.31,3.31,0,0,1,186,77.24l1.59,4.29a3.35,3.35,0,0,1-1.68,4.23,3.23,3.23,0,0,1-4-1.28,2.13,2.13,0,0,0-3-.67L173,87.71a3,3,0,0,0-1.2,3.3,48.76,48.76,0,0,1,1.73,12.91c0,.71,0,1.46,0,2.22a3,3,0,0,0,1.79,2.91l10.74,4.71a2.14,2.14,0,0,0,3-1.56l.34-1.75a2.31,2.31,0,1,1,4.53.9l-1.76,9a2.31,2.31,0,0,1-2.82,1.81,2.4,2.4,0,0,1-1.68-2.82l0-.25a2.15,2.15,0,0,0-.48-1.82,2.12,2.12,0,0,0-1.72-.75l-11.62.53a3,3,0,0,0-2.71,2.07,48,48,0,0,1-4.25,9.38,3,3,0,0,0,.29,3.48l5.14,6.14a2.14,2.14,0,0,0,3.12.17,3.19,3.19,0,0,1,4.17-.23,3.26,3.26,0,0,1,.6,4.54l-1.49,2a3.32,3.32,0,0,1-4.46.8,3.26,3.26,0,0,1-1.22-3.7,2.17,2.17,0,0,0-1.17-2.67l-7.41-3.27a3,3,0,0,0-3.42.74,48.36,48.36,0,0,1-11.33,9.23,3,3,0,0,0-1.45,3.08l1.89,11.62a2.18,2.18,0,0,0,1.07,1.54,2.13,2.13,0,0,0,1.86.12l1.64-.66a2.24,2.24,0,0,1,1.81.05,2.26,2.26,0,0,1,1.22,1.35,2.42,2.42,0,0,1-1.44,3l-8.37,3.37a2.31,2.31,0,0,1-3-1.4,2.42,2.42,0,0,1,1.44-3l.22-.09a2.16,2.16,0,0,0,1.27-1.4,2.2,2.2,0,0,0-.31-1.86l-6.76-9.52a3,3,0,0,0-3.19-1.17,48.09,48.09,0,0,1-21.77.57,3,3,0,0,0-3.12,1.33l-6.77,10.67a2.17,2.17,0,0,0-.22,1.86,2.14,2.14,0,0,0,1.3,1.33l.24.09a3.3,3.3,0,0,1,2,4.22,2.1,2.1,0,0,0-.13.74,1.68,1.68,0,0,1-2.54,1.78l-8.3-3a3.32,3.32,0,0,1-2-4.16,3.19,3.19,0,0,1,1.66-1.84,3.54,3.54,0,0,1,2.69-.14l.19.07a2.13,2.13,0,0,0,1.87-.19,2.16,2.16,0,0,0,1-1.6l1.38-12.5a3,3,0,0,0-1.6-3,48,48,0,0,1-13.37-10.26,3,3,0,0,0-3.34-.75l-10.14,4.18a2.22,2.22,0,0,0-1.21,1.27,2.18,2.18,0,0,0,.13,1.75,2.64,2.64,0,0,1-.88,3.45,2.71,2.71,0,0,1-3.68-.81L68.34,142a2.71,2.71,0,0,1,.45-3.68,2.62,2.62,0,0,1,3.72.47,2.14,2.14,0,0,0,3.33.13L83,130.8a3,3,0,0,0,.37-3.46c-.76-1.39-1.48-2.86-2.12-4.36a2.14,2.14,0,0,0-2.82-1.13,2.17,2.17,0,0,0-1.13,2.84c.57,1.34,1.2,2.66,1.87,3.93L74,134.43a7,7,0,0,0-2.74-1,6.84,6.84,0,0,0-5.17,1.44,7.07,7.07,0,0,0-1.32,9.55l2.59,3.75a7,7,0,0,0,9.57,2A6.93,6.93,0,0,0,80,143.34l7.48-3.08a52.34,52.34,0,0,0,13.14,10.08l-1,9.29a7.74,7.74,0,0,0-3.59.76,7.46,7.46,0,0,0-3.88,4.33,7.67,7.67,0,0,0,4.57,9.63l8.31,3a7.14,7.14,0,0,0,2.48.46,5.67,5.67,0,0,0,3.32-1,6.21,6.21,0,0,0,2.5-4.9,7.58,7.58,0,0,0-.37-5.46,7.45,7.45,0,0,0-2.2-2.79l5-8a52.61,52.61,0,0,0,22-.57l4.9,6.91a6.66,6.66,0,0,0-1.85,7.09,6.61,6.61,0,0,0,8.7,4l8.38-3.37a6.71,6.71,0,0,0,3.91-8.38,6.59,6.59,0,0,0-7.84-4.28L152.65,149a52.79,52.79,0,0,0,10.93-8.9l5,2.21a7.64,7.64,0,0,0,3.24,6.65,7.55,7.55,0,0,0,10.31-1.74l1.49-1.95a7.6,7.6,0,0,0-1.4-10.6,7.43,7.43,0,0,0-7.86-.79l-3.3-3.94a52.79,52.79,0,0,0,3.87-8.57l8.44-.39a6.57,6.57,0,0,0,10,4.57,6.69,6.69,0,0,0,2.93-4.33l1.76-9a6.65,6.65,0,0,0-5.21-7.8Z" transform="translate(-0.08 -0.17)"/><path class="b" d="M65.62,110.22l8,1.87c.18,1.13.4,2.27.65,3.41a2.15,2.15,0,0,0,2.1,1.69,2.59,2.59,0,0,0,.47,0,2.16,2.16,0,0,0,1.63-2.58c-.3-1.33-.54-2.66-.72-4a3,3,0,0,0-2.29-2.53L64.1,105.43a2.13,2.13,0,0,0-1.82.41,2.19,2.19,0,0,0-.82,1.68v1.34a2.75,2.75,0,0,1-2.73,2.73,2.65,2.65,0,0,1-2.65-2.69l.07-8.34a2.92,2.92,0,0,1,.89-2,2.6,2.6,0,0,1,1.88-.76,2.72,2.72,0,0,1,2.62,2.73,2.15,2.15,0,0,0,2.64,2.11L75.5,99.92a3,3,0,0,0,2.28-2.53,48.16,48.16,0,0,1,6-17.62,3,3,0,0,0-.31-3.46l-5.4-6.38a2.14,2.14,0,0,0-3.35.1l-.47.62a2,2,0,0,1-1.44.82A2.1,2.1,0,0,1,71.2,71,2.21,2.21,0,0,1,71,68l3.6-4.79a2.09,2.09,0,0,1,2.94-.41A2.12,2.12,0,0,1,78,65.62a2.17,2.17,0,0,0,1,3.15l7.55,3.28a3,3,0,0,0,3.41-.73,48.55,48.55,0,0,1,11.85-9.52,3,3,0,0,0,1.49-3.06l-1.74-11.65a2.16,2.16,0,0,0-2.9-1.7L97,46A2.24,2.24,0,0,1,95.16,46,2.28,2.28,0,0,1,94,44.59a2.41,2.41,0,0,1,1.48-2.93l8.42-3.26a2.3,2.3,0,0,1,3,1.44,2.42,2.42,0,0,1-1.48,2.94l-.23.08a2.17,2.17,0,0,0-1,3.25l6.63,9.61A3,3,0,0,0,114,56.93a48.12,48.12,0,0,1,11.49-1.39h0a3,3,0,0,0,2.82-2l2.2-6.17a2.16,2.16,0,0,0-.1-1.69,2.11,2.11,0,0,0-1.28-1.1,3.5,3.5,0,0,1-2.42-3.75A3.38,3.38,0,0,1,128,38.55a3.67,3.67,0,0,1,2.72-.77l3,.38A3.59,3.59,0,0,1,136.91,42a3.48,3.48,0,0,1-2.59,3,2.17,2.17,0,0,0-1.59,2.34l.76,6.69a3,3,0,0,0,2.34,2.6A47.66,47.66,0,0,1,149.5,62a3,3,0,0,0,3.39-.26l9.1-7.43A2.17,2.17,0,0,0,162,51l-1.38-1.1a2.32,2.32,0,0,1-.3-3.35,2.38,2.38,0,0,1,3.26-.21l7.07,5.64a2.27,2.27,0,0,1,.86,1.61,2.31,2.31,0,0,1-.56,1.74,2.39,2.39,0,0,1-3.27.21l-.19-.15a2.08,2.08,0,0,0-1.83-.41,2.16,2.16,0,0,0-1.46,1.19L159.3,66.76a3.05,3.05,0,0,0,.58,3.36l1,1A2.15,2.15,0,1,0,164,68.23l-.43-.48L167.12,60a6.56,6.56,0,0,0,7-1.91,6.63,6.63,0,0,0,1.61-5,6.7,6.7,0,0,0-2.48-4.6l-7.06-5.64a6.63,6.63,0,0,0-9,9.71l-6.37,5.2a51.74,51.74,0,0,0-13.22-5.16l-.47-4.15a7.84,7.84,0,0,0-2.92-14.64l-3-.38a8,8,0,0,0-5.91,1.65,7.69,7.69,0,0,0-2.93,5.18,7.83,7.83,0,0,0,3.38,7.4l-1.25,3.51a52.2,52.2,0,0,0-10.73,1.29l-4.81-7a6.61,6.61,0,0,0-6.7-11.18l-8.42,3.25a6.7,6.7,0,0,0-4,8.33,6.6,6.6,0,0,0,7.78,4.38l1.22,8.16a52.94,52.94,0,0,0-11.5,9.23l-4.85-2.11a6.49,6.49,0,0,0-2.43-6.25,6.39,6.39,0,0,0-9,1.25l-3.6,4.79a6.51,6.51,0,0,0,.93,8.92,6.34,6.34,0,0,0,4.83,1.45,6.45,6.45,0,0,0,3-1.2l3.26,3.85a52.14,52.14,0,0,0-5.94,17.5l-8.32,2A7,7,0,0,0,59,93.43a6.87,6.87,0,0,0-5,2,7.3,7.3,0,0,0-2.2,5.13l-.07,8.33a7,7,0,0,0,6.95,7,7.08,7.08,0,0,0,6.9-5.69Z" transform="translate(-0.08 -0.17)"/><path class="b" d="M114.82,98.42a2.16,2.16,0,0,0-2-3.82c-5.13,2.74-11,2-13.92-1.72a9.34,9.34,0,0,1-1.59-7.82,14.84,14.84,0,0,1,14.28-11.32,9.26,9.26,0,0,1,7.19,3.38c2.47,3.15,2.44,7.85-.08,12a2.18,2.18,0,0,0,.71,3,2.15,2.15,0,0,0,3-.72c3.46-5.68,3.38-12.32-.21-16.9a13.46,13.46,0,0,0-10.45-5,18.42,18.42,0,0,0-11.86,4.12,18.61,18.61,0,0,0-6.75,10.63,13.17,13.17,0,0,0,13.37,16.4,17.85,17.85,0,0,0,8.37-2.15Z" transform="translate(-0.08 -0.17)"/><path class="b" d="M156.53,79c0-4.48-4.15-8.13-9.24-8.13S138,74.56,138,79s4.15,8.12,9.25,8.12S156.53,83.52,156.53,79Zm-14.19,0c0-2.1,2.22-3.81,4.95-3.81s4.94,1.71,4.94,3.81-2.22,3.8-4.94,3.8S142.34,81.13,142.34,79Z" transform="translate(-0.08 -0.17)"/><path class="b" d="M131.58,116.19a9.91,9.91,0,1,0-9.9,10A9.94,9.94,0,0,0,131.58,116.19Zm-15.51,0a5.61,5.61,0,1,1,5.61,5.63A5.63,5.63,0,0,1,116.07,116.19Z" transform="translate(-0.08 -0.17)"/><path class="b" d="M159.61,112.12a7.71,7.71,0,1,0-7.7,7.75A7.73,7.73,0,0,0,159.61,112.12Zm-11.11,0a3.41,3.41,0,1,1,3.41,3.43A3.42,3.42,0,0,1,148.5,112.12Z" transform="translate(-0.08 -0.17)"/><path class="b" d="M131.4,147a7.59,7.59,0,1,0-7.55-7.59A7.58,7.58,0,0,0,131.4,147Zm0-10.85a3.27,3.27,0,1,1-3.25,3.26A3.26,3.26,0,0,1,131.4,136.11Z" transform="translate(-0.08 -0.17)"/><path class="b" d="M97.61,134.2a7.82,7.82,0,1,0-7.77-7.81A7.8,7.8,0,0,0,97.61,134.2Zm0-11.31a3.5,3.5,0,1,1-3.47,3.5A3.49,3.49,0,0,1,97.61,122.89Z" transform="translate(-0.08 -0.17)"/><path class="b" d="M141.39,99.34a2.16,2.16,0,0,0-2.15-2.17h-1.9a2.17,2.17,0,0,0,0,4.33h1.9A2.16,2.16,0,0,0,141.39,99.34Z" transform="translate(-0.08 -0.17)"/><path class="b" d="M112,139.28h2a2.16,2.16,0,0,0,0-4.32h-2a2.16,2.16,0,0,0,0,4.32Z" transform="translate(-0.08 -0.17)"/><path class="b" d="M93.87,107.8a2.16,2.16,0,0,0,0-4.32H92a2.16,2.16,0,0,0,0,4.32Z" transform="translate(-0.08 -0.17)"/><path class="b" d="M132.05,70a2.16,2.16,0,0,0,0-4.32h-2.62a2.16,2.16,0,0,0,0,4.32Z" transform="translate(-0.08 -0.17)"/><path class="b" d="M146.35,127.92a2.16,2.16,0,0,0,0,4.32h2.89a2.16,2.16,0,0,0,0-4.32Z" transform="translate(-0.08 -0.17)"/><path class="b" d="M192.59,39.61a95.22,95.22,0,0,0-135.18,0,95.74,95.74,0,0,0-28,68c0,51.94,48.84,95.13,75.08,118.34,3.64,3.22,6.79,6,9.3,8.37a16.43,16.43,0,0,0,22.42,0c2.51-2.36,5.66-5.15,9.3-8.37,26.24-23.21,75.08-66.4,75.08-118.34A95.74,95.74,0,0,0,192.59,39.61ZM136.77,215.92c-3.73,3.29-6.94,6.14-9.6,8.63a3.18,3.18,0,0,1-4.34,0c-2.66-2.49-5.87-5.34-9.6-8.63C88.56,194.1,42.65,153.49,42.65,107.58c0-45.66,36.94-82.8,82.35-82.8s82.35,37.14,82.35,82.8C207.35,153.49,161.44,194.1,136.77,215.92Z" transform="translate(-0.08 -0.17)"/></svg>