<svg xmlns="http://www.w3.org/2000/svg" viewBox="0 0 210.19 249.83"><defs><style>.a{fill:#fff;}</style></defs><path class="a" d="M199.65,102.16a7.16,7.16,0,0,0-5.45,1.1,7.27,7.27,0,0,0-2.82,3.69l-8.28-3.63q0-.85,0-1.68a58.44,58.44,0,0,0-1.81-14.45L185,84.66A8.28,8.28,0,0,0,193.8,86a8.42,8.42,0,0,0,4.39-10.67l-1.75-4.71a8.27,8.27,0,0,0-16.07,2.75l-4.21.6c-.58-1.07-1.21-2.15-1.88-3.22a2.37,2.37,0,1,0-4,2.54c.79,1.26,1.52,2.53,2.16,3.77a3.3,3.3,0,0,0,3.38,1.75l7.59-1.06a2.38,2.38,0,0,0,1.7-1.13,2.41,2.41,0,0,0,.2-2,3.56,3.56,0,0,1,.15-2.77A3.5,3.5,0,0,1,187.54,70,3.64,3.64,0,0,1,192,72.32L193.76,77a3.68,3.68,0,0,1-1.85,4.65,3.54,3.54,0,0,1-4.44-1.41A2.38,2.38,0,0,0,186,79.18a2.33,2.33,0,0,0-1.83.36l-6.3,4.29a3.32,3.32,0,0,0-1.32,3.63,53.68,53.68,0,0,1,1.9,14.18c0,.79,0,1.62-.06,2.45a3.33,3.33,0,0,0,2,3.19l11.81,5.19a2.38,2.38,0,0,0,2-.07,2.4,2.4,0,0,0,1.22-1.65l.37-1.92a2.55,2.55,0,0,1,3-2,2.55,2.55,0,0,1,2,3l-1.94,9.93a2.51,2.51,0,0,1-1.12,1.66,2.55,2.55,0,0,1-2,.32,2.65,2.65,0,0,1-1.85-3.1l.05-.27a2.37,2.37,0,0,0-2.42-2.83l-12.78.59a3.3,3.3,0,0,0-3,2.27,54.15,54.15,0,0,1-4.67,10.32,3.33,3.33,0,0,0,.31,3.82l5.65,6.75a2.36,2.36,0,0,0,3.44.19,3.54,3.54,0,0,1,5.24,4.73l-1.64,2.16a3.64,3.64,0,0,1-4.9.88,3.6,3.6,0,0,1-1.35-4.07,2.36,2.36,0,0,0-1.28-2.93l-8.15-3.6a3.29,3.29,0,0,0-3.76.81,53.11,53.11,0,0,1-12.46,10.15,3.33,3.33,0,0,0-1.59,3.39l2.09,12.78a2.37,2.37,0,0,0,3.21,1.82l1.8-.72a2.49,2.49,0,0,1,2,0,2.58,2.58,0,0,1,1.34,1.5,2.64,2.64,0,0,1-1.58,3.24l-9.21,3.71a2.53,2.53,0,0,1-2,0,2.5,2.5,0,0,1-1.34-1.49,2.65,2.65,0,0,1,1.58-3.25l.25-.1a2.38,2.38,0,0,0,1-3.59l-7.42-10.46a3.31,3.31,0,0,0-3.51-1.28,52.87,52.87,0,0,1-23.93.62,3.32,3.32,0,0,0-3.44,1.47L104,166.94a2.41,2.41,0,0,0-.24,2,2.32,2.32,0,0,0,1.43,1.47l.26.1a3.62,3.62,0,0,1,2.15,4.64,2.24,2.24,0,0,0-.15.81,2.26,2.26,0,0,1-.74,1.92,2.21,2.21,0,0,1-2,0l-9.14-3.35A3.64,3.64,0,0,1,93.37,170a3.49,3.49,0,0,1,1.83-2,3.83,3.83,0,0,1,3-.15l.21.08a2.35,2.35,0,0,0,2.06-.22,2.38,2.38,0,0,0,1.1-1.75L103,152.23a3.35,3.35,0,0,0-1.77-3.3,52.91,52.91,0,0,1-14.69-11.28,3.3,3.3,0,0,0-3.68-.83l-11.15,4.6a2.32,2.32,0,0,0-1.32,1.39,2.37,2.37,0,0,0,.14,1.93,2.9,2.9,0,0,1-1,3.79,3,3,0,0,1-4-.89L62.7,143.5a3,3,0,0,1,.5-4.05,2.87,2.87,0,0,1,4.09.53,2.36,2.36,0,0,0,3.66.14l7.85-8.92a3.33,3.33,0,0,0,.41-3.8c-.84-1.54-1.63-3.15-2.33-4.8a2.36,2.36,0,1,0-4.34,1.88c.63,1.48,1.32,2.93,2.06,4.32L69,135.2a7.56,7.56,0,0,0-8.7.52,7.77,7.77,0,0,0-1.45,10.49l2.86,4.14A7.71,7.71,0,0,0,72.2,152.5,7.63,7.63,0,0,0,75.56,145l8.22-3.39a57.73,57.73,0,0,0,14.45,11.09L97.1,162.9a8.6,8.6,0,0,0-3.94.83,8.24,8.24,0,0,0-4.26,4.77,8.43,8.43,0,0,0,5,10.58l9.14,3.35a8,8,0,0,0,2.72.5,6.28,6.28,0,0,0,3.65-1.12,6.78,6.78,0,0,0,2.75-5.39,8.33,8.33,0,0,0-.4-6,8.47,8.47,0,0,0-2.42-3.06l5.55-8.75a58,58,0,0,0,24.14-.63l5.39,7.6a7.3,7.3,0,0,0-2,7.79,7.26,7.26,0,0,0,9.56,4.4l9.21-3.7a7.38,7.38,0,0,0,4.3-9.22,7.25,7.25,0,0,0-8.62-4.7l-1.46-9a57.92,57.92,0,0,0,12-9.78l5.5,2.43a8.26,8.26,0,0,0,14.89,5.41l1.64-2.16a8.29,8.29,0,0,0-10.19-12.52l-3.62-4.33a58.69,58.69,0,0,0,4.26-9.42l9.27-.42a7.29,7.29,0,0,0,5.41,6,7.15,7.15,0,0,0,5.64-.94,7.32,7.32,0,0,0,3.22-4.75l1.94-9.92a7.31,7.31,0,0,0-5.73-8.57Z" transform="translate(-19.9)"/><path class="a" d="M59.71,108.57l8.86,2.06c.19,1.24.43,2.5.71,3.75a2.37,2.37,0,1,0,4.62-1c-.33-1.46-.59-2.92-.79-4.34a3.34,3.34,0,0,0-2.52-2.78L58,103.31a2.37,2.37,0,0,0-2.89,2.29v1.48a3,3,0,0,1-3,3,2.87,2.87,0,0,1-2.07-.87,2.92,2.92,0,0,1-.85-2.09L49.29,98a3.25,3.25,0,0,1,1-2.26,2.86,2.86,0,0,1,2.07-.83,3,3,0,0,1,2.88,3,2.37,2.37,0,0,0,2.9,2.33l12.46-2.94a3.32,3.32,0,0,0,2.51-2.78A52.87,52.87,0,0,1,79.66,75.1a3.32,3.32,0,0,0-.34-3.8l-5.94-7a2.35,2.35,0,0,0-1.87-.84,2.41,2.41,0,0,0-1.82,1l-.51.68a2.3,2.3,0,0,1-3.33.38,2.43,2.43,0,0,1-.27-3.29l4-5.26a2.31,2.31,0,0,1,3.79,2.64,2.42,2.42,0,0,0-.26,2A2.36,2.36,0,0,0,74.38,63l8.31,3.61a3.27,3.27,0,0,0,3.74-.81,53.17,53.17,0,0,1,13-10.45A3.35,3.35,0,0,0,101.1,52l-1.92-12.8A2.37,2.37,0,0,0,96,37.3L94.18,38a2.51,2.51,0,0,1-2-.08,2.58,2.58,0,0,1-1.33-1.51,2.66,2.66,0,0,1,1.63-3.22l9.26-3.58a2.49,2.49,0,0,1,2,.07,2.53,2.53,0,0,1,1.32,1.51,2.66,2.66,0,0,1-1.63,3.23l-.25.09a2.38,2.38,0,0,0-1.09,3.57l7.29,10.57A3.28,3.28,0,0,0,112.88,50a52.86,52.86,0,0,1,12.63-1.52h0a3.29,3.29,0,0,0,3.11-2.2L131,39.47a2.45,2.45,0,0,0-.11-1.86,2.39,2.39,0,0,0-1.41-1.2,3.85,3.85,0,0,1-2.66-4.13,3.7,3.7,0,0,1,1.44-2.51,4.06,4.06,0,0,1,3-.84l3.31.42a3.94,3.94,0,0,1,3.49,4.26,3.82,3.82,0,0,1-2.84,3.31,2.38,2.38,0,0,0-1.75,2.57l.84,7.35a3.3,3.3,0,0,0,2.57,2.86,52.46,52.46,0,0,1,15,5.87,3.29,3.29,0,0,0,3.73-.29l10-8.16a2.41,2.41,0,0,0,.87-1.86,2.38,2.38,0,0,0-.89-1.85l-1.52-1.21a2.53,2.53,0,0,1-.95-1.77,2.48,2.48,0,0,1,.62-1.91,2.62,2.62,0,0,1,3.59-.23l7.77,6.2a2.55,2.55,0,0,1,.94,1.77,2.48,2.48,0,0,1-.62,1.91,2.62,2.62,0,0,1-3.59.23l-.21-.17a2.35,2.35,0,0,0-3.61.87l-5.36,11.69a3.35,3.35,0,0,0,.64,3.7c.34.34.67.7,1.06,1.13a2.35,2.35,0,0,0,3.34.14,2.39,2.39,0,0,0,.14-3.36c-.17-.18-.32-.35-.48-.51l3.89-8.49a7.26,7.26,0,0,0,9.51-7.57,7.36,7.36,0,0,0-2.72-5.06l-7.76-6.2a7.29,7.29,0,0,0-9.87,10.68l-7,5.72a56.49,56.49,0,0,0-14.53-5.68l-.52-4.56a8.62,8.62,0,0,0-3.2-16.1l-3.32-.42A8.8,8.8,0,0,0,125.39,26a8.47,8.47,0,0,0-3.23,5.69,8.66,8.66,0,0,0,3.72,8.15l-1.37,3.85a57,57,0,0,0-11.8,1.42l-5.29-7.67a7.27,7.27,0,0,0-7.37-12.29L90.8,28.76a7.38,7.38,0,0,0-4.42,9.16,7.24,7.24,0,0,0,8.56,4.81l1.34,9A57.47,57.47,0,0,0,83.63,61.85L78.3,59.53a7.13,7.13,0,0,0-2.68-6.87A7,7,0,0,0,65.76,54l-4,5.26a7.15,7.15,0,0,0,1,9.8,7,7,0,0,0,8.66.28l3.58,4.23a57.56,57.56,0,0,0-6.53,19.24L59.4,95a7.74,7.74,0,0,0-6.94-4.88A7.52,7.52,0,0,0,47,92.28a8,8,0,0,0-2.42,5.64l-.09,9.16a7.68,7.68,0,0,0,2.22,5.48,7.58,7.58,0,0,0,5.43,2.27,7.78,7.78,0,0,0,7.58-6.26Z" transform="translate(-19.9)"/><path class="a" d="M113.8,95.6a2.37,2.37,0,0,0-2.21-4.2c-5.65,3-12.09,2.22-15.31-1.89a10.32,10.32,0,0,1-1.75-8.6A15.67,15.67,0,0,1,100.26,72a15.49,15.49,0,0,1,10-3.51,10.12,10.12,0,0,1,7.91,3.72c2.71,3.46,2.68,8.62-.09,13.16a2.39,2.39,0,0,0,.78,3.27,2.36,2.36,0,0,0,3.25-.79c3.81-6.25,3.72-13.54-.23-18.58a14.77,14.77,0,0,0-11.48-5.53A21,21,0,0,0,89.91,79.93a14.49,14.49,0,0,0,14.7,18,19.58,19.58,0,0,0,9.19-2.36Z" transform="translate(-19.9)"/><path class="a" d="M159.67,74.29c0-4.93-4.56-8.93-10.17-8.93s-10.16,4-10.16,8.93,4.56,8.94,10.16,8.94S159.67,79.22,159.67,74.29Zm-15.61,0c0-2.31,2.44-4.18,5.44-4.18s5.44,1.87,5.44,4.18-2.44,4.18-5.44,4.18S144.06,76.6,144.06,74.29Z" transform="translate(-19.9)"/><path class="a" d="M132.24,115.13a10.89,10.89,0,1,0-10.89,11A10.94,10.94,0,0,0,132.24,115.13Zm-17.06,0a6.17,6.17,0,1,1,6.17,6.2A6.19,6.19,0,0,1,115.18,115.13Z" transform="translate(-19.9)"/><path class="a" d="M163.05,110.67a8.47,8.47,0,1,0-8.47,8.51A8.5,8.5,0,0,0,163.05,110.67Zm-12.21,0a3.74,3.74,0,1,1,3.74,3.76A3.76,3.76,0,0,1,150.84,110.67Z" transform="translate(-19.9)"/><path class="a" d="M132,149a8.35,8.35,0,1,0-8.3-8.34A8.33,8.33,0,0,0,132,149ZM132,137a3.6,3.6,0,1,1-3.57,3.6A3.59,3.59,0,0,1,132,137Z" transform="translate(-19.9)"/><path class="a" d="M94.89,134.94a8.6,8.6,0,1,0-8.55-8.59A8.58,8.58,0,0,0,94.89,134.94Zm0-12.43a3.84,3.84,0,1,1-3.82,3.84A3.83,3.83,0,0,1,94.89,122.51Z" transform="translate(-19.9)"/><path class="a" d="M143,96.61a2.37,2.37,0,0,0-2.36-2.38h-2.09a2.38,2.38,0,0,0,0,4.75h2.09A2.37,2.37,0,0,0,143,96.61Z" transform="translate(-19.9)"/><path class="a" d="M110.67,140.52h2.15a2.38,2.38,0,0,0,0-4.75h-2.15a2.38,2.38,0,0,0,0,4.75Z" transform="translate(-19.9)"/><path class="a" d="M90.77,105.92a2.38,2.38,0,0,0,0-4.76H88.7a2.38,2.38,0,0,0,0,4.76Z" transform="translate(-19.9)"/><path class="a" d="M132.75,64.34a2.38,2.38,0,0,0,0-4.75h-2.88a2.38,2.38,0,0,0,0,4.75Z" transform="translate(-19.9)"/><path class="a" d="M148.48,128a2.38,2.38,0,0,0,0,4.76h3.17a2.38,2.38,0,0,0,0-4.76Z" transform="translate(-19.9)"/><path class="a" d="M199.31,31A104.68,104.68,0,0,0,50.69,31,105.27,105.27,0,0,0,19.9,105.67c0,57.09,53.7,104.58,82.55,130.1,4,3.54,7.47,6.6,10.22,9.19a18,18,0,0,0,24.66,0c2.75-2.59,6.22-5.65,10.22-9.19,28.85-25.52,82.55-73,82.55-130.1A105.27,105.27,0,0,0,199.31,31ZM137.94,224.78c-4.1,3.62-7.63,6.75-10.55,9.49a3.49,3.49,0,0,1-4.78,0c-2.92-2.74-6.45-5.87-10.55-9.49-27.12-24-77.6-68.63-77.6-119.11,0-50.2,40.61-91,90.54-91s90.54,40.83,90.54,91C215.54,156.15,165.06,200.79,137.94,224.78Z" transform="translate(-19.9)"/></svg>